<svg width="26" height="26" viewBox="0 0 26 26" fill="none" xmlns="http://www.w3.org/2000/svg">
<path d="M23.3479 0.684814H1.77015C0.817362 0.684814 0.0327148 1.52551 0.0327148 2.53434V24C0.0327148 25.0089 0.817362 25.7935 1.77015 25.7935H23.3479C24.3007 25.7935 25.1414 25.0089 25.1414 24V2.53434C25.1414 1.52551 24.3007 0.684814 23.3479 0.684814ZM7.59895 22.2066H3.8999V10.2687H7.59895V22.2066ZM5.74943 8.58733C4.51641 8.58733 3.56363 7.63454 3.56363 6.45757C3.56363 5.2806 4.51641 4.27177 5.74943 4.27177C6.9264 4.27177 7.87918 5.2806 7.87918 6.45757C7.87918 7.63454 6.9264 8.58733 5.74943 8.58733ZM21.5545 22.2066H17.7994V16.3777C17.7994 15.0326 17.7994 13.2392 15.8938 13.2392C13.9322 13.2392 13.6519 14.7524 13.6519 16.3217V22.2066H9.95289V10.2687H13.4838V11.8941H13.5398C14.0443 10.9413 15.2773 9.93244 17.0708 9.93244C20.8259 9.93244 21.5545 12.4545 21.5545 15.6491V22.2066Z" fill="#0699A6"/>
</svg>
